<?xml version="1.0" encoding="UTF-8" standalone="no"?>
<!-- Created with Inkscape (http://www.inkscape.org/) -->
<svg id="svg3494" xmlns:rdf="http://www.w3.org/1999/02/22-rdf-syntax-ns#" xmlns="http://www.w3.org/2000/svg" viewBox="0 0 275.88 112.87" version="1.1" xmlns:cc="http://creativecommons.org/ns#" xmlns:dc="http://purl.org/dc/elements/1.1/">
 <metadata id="metadata3499">
  <rdf:RDF>
   <cc:Work rdf:about="">
    <dc:format>image/svg+xml</dc:format>
    <dc:type rdf:resource="http://purl.org/dc/dcmitype/StillImage"/>
    <dc:title/>
   </cc:Work>
  </rdf:RDF>
 </metadata>
 <g id="layer1" transform="translate(-237.06103,-475.92625)">
  <g id="g3805">
   <g id="g3155" transform="matrix(1.25,0,0,-1.25,255.97958,528.67062)">
    <path id="path3157" d="m0,0c0.738,0.385,1.347,0.897,1.828,1.538,0.481,0.643,0.843,1.372,1.081,2.19,0.241,0.818,0.362,1.673,0.362,2.573,0,1.025-0.097,1.995-0.291,2.91-0.189,0.912-0.51,1.722-0.959,2.427-0.449,0.706-1.042,1.266-1.78,1.682-0.737,0.417-1.668,0.627-2.789,0.627-0.962,0-1.787-0.192-2.476-0.577-0.69-0.385-1.267-0.905-1.732-1.564-0.465-0.658-0.801-1.41-1.009-2.259-0.21-0.85-0.314-1.739-0.314-2.67,0-0.897,0.088-1.788,0.266-2.669,0.176-0.882,0.481-1.676,0.912-2.38,0.433-0.705,1.003-1.283,1.709-1.731,0.704-0.45,1.586-0.673,2.644-0.673,0.962,0,1.81,0.191,2.548,0.576m9.354-8.271c-0.272-1.282-0.858-2.478-1.754-3.583-0.9-1.106-2.197-2.044-3.896-2.815-1.7-0.766-3.975-1.152-6.828-1.152-1.221,0-2.463,0.151-3.729,0.457-1.265,0.302-2.419,0.777-3.462,1.42-1.041,0.64-1.909,1.463-2.597,2.475-0.69,1.009-1.082,2.22-1.178,3.629h6.779c0.321-1.281,0.948-2.169,1.877-2.67,0.93-0.494,2.005-0.744,3.223-0.744,1.923,0,3.325,0.577,4.207,1.733,0.883,1.153,1.306,2.614,1.275,4.376v3.27h-0.097c-0.738-1.314-1.786-2.285-3.148-2.91-1.364-0.625-2.799-0.937-4.306-0.937-1.859,0-3.462,0.326-4.809,0.986-1.347,0.656-2.451,1.553-3.318,2.693-0.864,1.137-1.498,2.467-1.9,3.99-0.401,1.523-0.601,3.134-0.601,4.834,0,1.603,0.233,3.15,0.699,4.641,0.463,1.49,1.146,2.805,2.043,3.942,0.896,1.138,2.012,2.046,3.342,2.718,1.331,0.674,2.862,1.01,4.593,1.01,1.634,0,3.069-0.305,4.303-0.914,1.236-0.609,2.269-1.634,3.102-3.078h0.097v3.32h6.493v-23.276c0-0.997-0.137-2.132-0.41-3.415" fill-rule="nonzero" fill="#FFF"/>
   </g>
   <g id="g3159" transform="matrix(1.25,0,0,-1.25,291.23588,522.26924)">
    <path id="path3161" d="m0,0c-0.432-0.144-0.896-0.265-1.395-0.359-0.497-0.098-1.017-0.177-1.562-0.242-0.546-0.064-1.09-0.142-1.635-0.24-0.514-0.097-1.017-0.225-1.514-0.384-0.498-0.161-0.93-0.378-1.3-0.65-0.367-0.271-0.664-0.618-0.889-1.034-0.225-0.418-0.336-0.945-0.336-1.586,0-0.61,0.111-1.124,0.336-1.539,0.225-0.418,0.528-0.745,0.914-0.986,0.385-0.241,0.832-0.41,1.346-0.505,0.513-0.097,1.042-0.145,1.588-0.145,1.346,0,2.386,0.224,3.126,0.674,0.736,0.449,1.28,0.984,1.633,1.611,0.353,0.625,0.569,1.257,0.651,1.9,0.079,0.639,0.12,1.153,0.12,1.538v2.55c-0.288-0.257-0.65-0.458-1.083-0.603m-13.49,9.644c0.707,1.056,1.604,1.908,2.693,2.547,1.092,0.642,2.318,1.099,3.68,1.371,1.363,0.272,2.732,0.409,4.111,0.409,1.251,0,2.518-0.089,3.801-0.264,1.281-0.177,2.451-0.522,3.51-1.034,1.059-0.513,1.924-1.227,2.597-2.14,0.673-0.914,1.01-2.125,1.01-3.632v-12.935c0-1.123,0.063-2.196,0.192-3.222,0.127-1.027,0.353-1.797,0.673-2.309h-6.925c-0.129,0.384-0.232,0.777-0.313,1.178-0.08,0.402-0.137,0.808-0.168,1.227-1.09-1.123-2.372-1.908-3.848-2.358-1.475-0.448-2.981-0.673-4.519-0.673-1.188,0-2.293,0.145-3.318,0.433-1.028,0.289-1.924,0.738-2.695,1.349-0.768,0.606-1.37,1.376-1.803,2.307-0.432,0.928-0.648,2.035-0.648,3.319,0,1.409,0.247,2.572,0.745,3.485,0.495,0.913,1.138,1.644,1.923,2.188,0.786,0.546,1.683,0.953,2.694,1.226s2.028,0.489,3.054,0.65c1.024,0.16,2.035,0.289,3.03,0.385,0.993,0.097,1.873,0.241,2.644,0.432,0.769,0.192,1.379,0.474,1.827,0.843,0.448,0.366,0.657,0.905,0.626,1.61,0,0.737-0.12,1.323-0.361,1.755-0.241,0.434-0.561,0.77-0.961,1.012-0.404,0.241-0.866,0.399-1.397,0.478-0.529,0.081-1.097,0.121-1.707,0.121-1.344,0-2.403-0.288-3.173-0.866-0.769-0.575-1.218-1.538-1.345-2.885h-6.829c0.094,1.603,0.495,2.934,1.2,3.993" fill-rule="nonzero" fill="#FFF"/>
   </g>
   <g id="g3163" transform="matrix(1.25,0,0,-1.25,313.11698,529.00025)">
    <path id="path3165" d="m0,0c0.306-0.529,0.698-0.964,1.179-1.298,0.481-0.337,1.033-0.587,1.659-0.747,0.626-0.161,1.273-0.24,1.947-0.24,0.482,0,0.986,0.056,1.516,0.168,0.528,0.113,1.011,0.288,1.442,0.528,0.434,0.241,0.793,0.564,1.082,0.962,0.289,0.401,0.434,0.906,0.434,1.517,0,1.025-0.682,1.793-2.045,2.308-1.362,0.513-3.261,1.026-5.698,1.539-0.995,0.224-1.964,0.488-2.911,0.792-0.945,0.304-1.787,0.706-2.524,1.202-0.738,0.497-1.33,1.124-1.779,1.878-0.45,0.751-0.674,1.674-0.674,2.765,0,1.601,0.313,2.916,0.938,3.942s1.451,1.836,2.478,2.429c1.025,0.594,2.179,1.01,3.462,1.25,1.281,0.241,2.598,0.36,3.943,0.36,1.347,0,2.653-0.126,3.92-0.383,1.264-0.257,2.397-0.69,3.389-1.298,0.993-0.611,1.821-1.42,2.477-2.429,0.656-1.012,1.05-2.285,1.178-3.824h-6.49c-0.098,1.314-0.595,2.204-1.493,2.67-0.897,0.465-1.955,0.696-3.173,0.696-0.385,0-0.803-0.023-1.25-0.072-0.448-0.049-0.859-0.152-1.228-0.313-0.368-0.161-0.68-0.392-0.936-0.698-0.257-0.304-0.385-0.714-0.385-1.225,0-0.609,0.223-1.105,0.673-1.491,0.448-0.384,1.033-0.697,1.756-0.938,0.719-0.239,1.547-0.457,2.475-0.648,0.93-0.193,1.877-0.403,2.838-0.626,0.993-0.224,1.963-0.497,2.908-0.818,0.947-0.321,1.788-0.745,2.526-1.274s1.33-1.188,1.779-1.972c0.447-0.785,0.675-1.755,0.675-2.91,0-1.634-0.329-3.004-0.987-4.111-0.657-1.107-1.513-1.997-2.573-2.67-1.058-0.672-2.268-1.147-3.63-1.417-1.365-0.272-2.749-0.411-4.16-0.411-1.443,0-2.853,0.146-4.232,0.434-1.379,0.289-2.605,0.769-3.679,1.443-1.074,0.673-1.955,1.562-2.645,2.669-0.691,1.106-1.067,2.492-1.13,4.16h6.49c0-0.738,0.154-1.37,0.458-1.899" fill-rule="nonzero" fill="#FFF"/>
   </g>
   <g id="g3167" transform="matrix(1.25,0,0,-1.25,363.70178,524.85475)">
    <path id="path3169" d="m0,0c0.192-0.944,0.52-1.794,0.985-2.548,0.465-0.753,1.083-1.354,1.852-1.804,0.77-0.448,1.732-0.673,2.887-0.673,1.153,0,2.121,0.225,2.908,0.673,0.786,0.45,1.411,1.051,1.876,1.804,0.466,0.754,0.793,1.604,0.985,2.548,0.194,0.947,0.288,1.917,0.288,2.912,0,0.991-0.094,1.97-0.288,2.932-0.192,0.962-0.519,1.811-0.985,2.55-0.465,0.736-1.09,1.337-1.876,1.802-0.787,0.464-1.755,0.699-2.908,0.699-1.155,0-2.117-0.235-2.887-0.699-0.769-0.465-1.387-1.066-1.852-1.802-0.465-0.739-0.793-1.588-0.985-2.55s-0.288-1.941-0.288-2.932c0-0.995,0.096-1.965,0.288-2.912m-6.203,8.32c0.608,1.619,1.473,2.998,2.597,4.138,1.121,1.137,2.467,2.018,4.039,2.645,1.571,0.623,3.334,0.936,5.291,0.936,1.954,0,3.726-0.313,5.313-0.936,1.587-0.627,2.942-1.508,4.063-2.645,1.123-1.14,1.987-2.519,2.597-4.138,0.609-1.618,0.913-3.421,0.913-5.408,0-1.989-0.304-3.784-0.913-5.387-0.61-1.604-1.474-2.975-2.597-4.113-1.121-1.138-2.476-2.013-4.063-2.62s-3.359-0.915-5.313-0.915c-1.957,0-3.72,0.308-5.291,0.915-1.572,0.607-2.918,1.482-4.039,2.62-1.124,1.138-1.989,2.509-2.597,4.113-0.609,1.603-0.914,3.398-0.914,5.387,0,1.987,0.305,3.79,0.914,5.408" fill-rule="nonzero" fill="#FFF"/>
   </g>
   <g id="g3171" transform="matrix(1.25,0,0,-1.25,397.87648,529.00025)">
    <path id="path3173" d="m0,0c0.304-0.529,0.696-0.964,1.178-1.298,0.482-0.337,1.033-0.587,1.66-0.747,0.624-0.161,1.274-0.24,1.947-0.24,0.481,0,0.985,0.056,1.513,0.168,0.531,0.113,1.011,0.288,1.443,0.528,0.434,0.241,0.794,0.564,1.083,0.962,0.289,0.401,0.434,0.906,0.434,1.517,0,1.025-0.684,1.793-2.044,2.308-1.363,0.513-3.263,1.026-5.7,1.539-0.994,0.224-1.962,0.488-2.909,0.792s-1.788,0.706-2.526,1.202c-0.736,0.497-1.329,1.124-1.778,1.878-0.45,0.751-0.674,1.674-0.674,2.765,0,1.601,0.313,2.916,0.937,3.942,0.626,1.026,1.45,1.836,2.479,2.429,1.025,0.594,2.179,1.01,3.461,1.25,1.283,0.241,2.597,0.36,3.944,0.36s2.653-0.126,3.919-0.383c1.267-0.257,2.396-0.69,3.391-1.298,0.993-0.611,1.819-1.42,2.476-2.429,0.657-1.012,1.05-2.285,1.179-3.824h-6.493c-0.096,1.314-0.593,2.204-1.489,2.67-0.899,0.465-1.957,0.696-3.176,0.696-0.385,0-0.801-0.023-1.249-0.072-0.45-0.049-0.859-0.152-1.228-0.313s-0.68-0.392-0.936-0.698c-0.257-0.304-0.385-0.714-0.385-1.225,0-0.609,0.224-1.105,0.671-1.491,0.449-0.384,1.035-0.697,1.757-0.938,0.72-0.239,1.547-0.457,2.475-0.648,0.932-0.193,1.878-0.403,2.838-0.626,0.994-0.224,1.965-0.497,2.909-0.818,0.947-0.321,1.789-0.745,2.526-1.274s1.33-1.188,1.78-1.972c0.448-0.785,0.673-1.755,0.673-2.91,0-1.634-0.328-3.004-0.985-4.111-0.66-1.107-1.515-1.997-2.575-2.67-1.058-0.672-2.267-1.147-3.629-1.417-1.364-0.272-2.751-0.411-4.161-0.411-1.443,0-2.853,0.146-4.232,0.434-1.379,0.289-2.604,0.769-3.679,1.443-1.074,0.673-1.955,1.562-2.644,2.669-0.69,1.106-1.068,2.492-1.13,4.16h6.49c0-0.738,0.154-1.37,0.459-1.899" fill-rule="nonzero" fill="#FFF"/>
   </g>
   <g id="g3175" transform="matrix(1.25,0,0,-1.25,354.04598,504.90962)">
    <path id="path3177" d="m0,0,0-6.411-5-0.026,0-11.098c0-1.156,0.193-1.926,0.575-2.311,0.386-0.383,1.154-0.576,2.309-0.576,0.385,0,0.753,0.016,1.107,0.048,0.352,0.031,0.69,0.081,1.009,0.145v-5.288c-0.576-0.099-1.219-0.164-1.925-0.195-0.704-0.032-1.393-0.049-2.065-0.049-1.059,0-2.062,0.073-3.007,0.215-0.944,0.147-1.779,0.427-2.501,0.844-0.72,0.417-1.29,1.01-1.707,1.779s-0.625,1.781-0.625,3.029l-0.009,13.457-3.33,0.002-1.878,6.451h5.217v6.783h6.83v-6.799h5z" fill-rule="nonzero" fill="#FFF"/>
   </g>
   <g id="g3179" transform="matrix(1.25,0,0,-1.25,256.38728,573.55587)">
    <path id="path3181" d="m0,0c-0.432-0.144-0.896-0.266-1.394-0.361-0.498-0.098-1.019-0.176-1.564-0.241-0.544-0.063-1.089-0.144-1.634-0.241-0.512-0.094-1.018-0.223-1.516-0.384-0.496-0.161-0.929-0.376-1.297-0.65-0.37-0.272-0.667-0.616-0.891-1.031-0.222-0.42-0.336-0.946-0.336-1.589,0-0.611,0.114-1.124,0.336-1.539,0.224-0.418,0.529-0.746,0.915-0.986,0.384-0.24,0.833-0.409,1.346-0.506,0.512-0.094,1.041-0.144,1.587-0.144,1.346,0,2.389,0.226,3.125,0.674,0.738,0.449,1.284,0.986,1.635,1.612,0.353,0.624,0.57,1.257,0.65,1.9,0.08,0.64,0.12,1.153,0.12,1.539v2.548c-0.289-0.256-0.648-0.456-1.082-0.601m-13.489,9.644c0.704,1.057,1.603,1.906,2.692,2.545,1.092,0.642,2.317,1.1,3.679,1.372,1.364,0.272,2.735,0.409,4.113,0.409,1.249,0,2.517-0.089,3.798-0.264,1.283-0.179,2.454-0.522,3.512-1.034,1.058-0.513,1.923-1.227,2.596-2.141,0.674-0.912,1.011-2.125,1.011-3.631v-12.936c0-1.123,0.063-2.195,0.192-3.223,0.127-1.024,0.352-1.795,0.673-2.307h-6.924c-0.13,0.386-0.235,0.777-0.314,1.176-0.081,0.403-0.138,0.811-0.169,1.229-1.092-1.122-2.372-1.907-3.847-2.359-1.474-0.448-2.981-0.673-4.52-0.673-1.187,0-2.292,0.146-3.318,0.436-1.026,0.288-1.922,0.736-2.693,1.347-0.769,0.606-1.372,1.377-1.803,2.306-0.432,0.932-0.65,2.036-0.65,3.319,0,1.41,0.249,2.572,0.744,3.484,0.497,0.915,1.14,1.646,1.925,2.19,0.786,0.545,1.684,0.955,2.693,1.226,1.01,0.275,2.027,0.489,3.053,0.649,1.026,0.162,2.036,0.291,3.031,0.385,0.993,0.099,1.875,0.242,2.645,0.434,0.767,0.191,1.379,0.472,1.828,0.841,0.448,0.369,0.656,0.905,0.624,1.612,0,0.737-0.12,1.32-0.36,1.755-0.243,0.435-0.561,0.768-0.962,1.01-0.403,0.241-0.866,0.399-1.395,0.481-0.529,0.079-1.097,0.118-1.707,0.118-1.346,0-2.404-0.287-3.175-0.863-0.768-0.578-1.218-1.54-1.345-2.887h-6.829c0.094,1.604,0.497,2.933,1.202,3.994" fill-rule="nonzero" fill="#FFF"/>
   </g>
   <g id="g3183" transform="matrix(1.25,0,0,-1.25,293.44788,568.71587)">
    <path id="path3185" d="M0,0c-0.225,0.962-0.577,1.81-1.058,2.549-0.481,0.734-1.084,1.321-1.804,1.753-0.72,0.434-1.596,0.651-2.622,0.651-0.993,0-1.858-0.217-2.594-0.651-0.739-0.432-1.348-1.019-1.828-1.753-0.482-0.739-0.836-1.587-1.06-2.549-0.223-0.965-0.335-1.972-0.335-3.03,0-1.027,0.112-2.021,0.335-2.983,0.224-0.963,0.578-1.811,1.06-2.55,0.48-0.736,1.089-1.321,1.828-1.754,0.736-0.433,1.601-0.649,2.594-0.649,1.026,0,1.902,0.216,2.622,0.649s1.323,1.018,1.804,1.754c0.481,0.739,0.833,1.587,1.058,2.55,0.224,0.962,0.338,1.956,0.338,2.983,0,1.058-0.114,2.065-0.338,3.03m-11.061,18.899,0-12.503,0.095,0c0.834,1.282,1.965,2.219,3.392,2.812,1.425,0.591,2.909,0.89,4.449,0.89,1.249,0,2.483-0.258,3.7-0.77,1.219-0.513,2.319-1.298,3.297-2.354,0.975-1.059,1.77-2.415,2.379-4.064,0.608-1.654,0.914-3.618,0.914-5.893,0-2.277-0.306-4.24-0.914-5.888-0.609-1.655-1.404-3.009-2.379-4.067-0.978-1.056-2.078-1.842-3.297-2.356-1.217-0.513-2.451-0.771-3.7-0.771-1.827,0-3.463,0.291-4.906,0.868-1.443,0.576-2.532,1.552-3.27,2.934h-0.097v-3.175h-6.492v34.337h6.829z" fill-rule="nonzero" fill="#FFF"/>
   </g>
   <g id="g3187" transform="matrix(1.25,0,0,-1.25,324.79548,564.20775)">
    <path id="path3189" d="m0,0c-0.817,0.896-2.06,1.347-3.727,1.347-1.089,0-1.997-0.186-2.716-0.553-0.722-0.37-1.3-0.828-1.733-1.372-0.432-0.546-0.736-1.122-0.913-1.732-0.177-0.607-0.28-1.153-0.311-1.632h11.106c-0.318,1.729-0.888,3.046-1.706,3.942m-7.719-13.08c1.027-0.995,2.501-1.492,4.424-1.492,1.38,0,2.566,0.343,3.561,1.034,0.992,0.69,1.602,1.418,1.827,2.187h6.011c-0.963-2.981-2.436-5.114-4.425-6.393-1.988-1.284-4.393-1.928-7.213-1.928-1.955,0-3.72,0.314-5.289,0.94-1.572,0.626-2.902,1.515-3.993,2.667-1.089,1.156-1.931,2.534-2.524,4.137-0.594,1.604-0.89,3.367-0.89,5.291,0,1.86,0.305,3.59,0.915,5.195,0.608,1.602,1.472,2.99,2.596,4.159,1.121,1.17,2.46,2.092,4.015,2.764,1.556,0.675,3.277,1.01,5.17,1.01,2.116,0,3.959-0.409,5.53-1.225,1.572-0.819,2.861-1.916,3.872-3.296,1.011-1.378,1.737-2.95,2.187-4.713s0.611-3.607,0.481-5.528h-17.936c0.095-2.213,0.655-3.815,1.681-4.809" fill-rule="nonzero" fill="#FFF"/>
   </g>
   <g id="g3191" transform="matrix(1.25,0,0,-1.25,346.82548,556.93362)">
    <path id="path3193" d="m0,0,0-4.616,0.097,0c0.32,0.766,0.754,1.481,1.299,2.137,0.543,0.658,1.17,1.219,1.876,1.687,0.705,0.462,1.457,0.822,2.259,1.078,0.803,0.258,1.589,0.457,2.452,0.386,0.408-0.033,0.408-0.033,0.818-0.131l1.77-6.215c-0.869,0-1.666,0.016-2.194,0.028-0.455,0.014-0.89-0.029-1.306-0.029-1.252,0-2.309-0.209-3.175-0.626-0.866-0.415-1.563-0.986-2.092-1.706-0.53-0.723-0.907-1.564-1.13-2.527-0.225-0.962-0.337-2.004-0.337-3.125v-11.205h-6.828v24.864h6.491z" fill-rule="nonzero" fill="#FFF"/>
   </g>
   <g id="g3195" transform="matrix(1.25,0,0,-1.25,393.17328,576.14137)">
    <path id="path3197" d="m0,0c0.192-0.945,0.52-1.795,0.985-2.549,0.465-0.752,1.082-1.354,1.852-1.804,0.77-0.448,1.731-0.672,2.885-0.672,1.155,0,2.123,0.224,2.91,0.672,0.785,0.45,1.411,1.052,1.874,1.804,0.467,0.754,0.794,1.604,0.987,2.549,0.194,0.944,0.289,1.914,0.289,2.91,0,0.991-0.095,1.972-0.289,2.933-0.193,0.961-0.52,1.81-0.987,2.551-0.463,0.735-1.089,1.335-1.874,1.801-0.787,0.463-1.755,0.699-2.91,0.699-1.154,0-2.115-0.236-2.885-0.699-0.77-0.466-1.387-1.066-1.852-1.801-0.465-0.741-0.793-1.59-0.985-2.551s-0.289-1.942-0.289-2.933c0-0.996,0.097-1.966,0.289-2.91m-6.205,8.32c0.61,1.618,1.476,2.996,2.599,4.136,1.12,1.138,2.467,2.021,4.04,2.648,1.569,0.622,3.333,0.934,5.288,0.934,1.956,0,3.728-0.312,5.315-0.934,1.587-0.627,2.942-1.51,4.064-2.648,1.122-1.14,1.987-2.518,2.597-4.136,0.607-1.619,0.912-3.423,0.912-5.41,0-1.988-0.305-3.784-0.912-5.387-0.61-1.601-1.475-2.972-2.597-4.112-1.122-1.136-2.477-2.011-4.064-2.621-1.587-0.606-3.359-0.915-5.315-0.915-1.955,0-3.719,0.309-5.288,0.915-1.573,0.61-2.92,1.485-4.04,2.621-1.123,1.14-1.989,2.511-2.599,4.112-0.608,1.603-0.912,3.399-0.912,5.387,0,1.987,0.304,3.791,0.912,5.41" fill-rule="nonzero" fill="#FFF"/>
   </g>
   <g id="g3199" transform="matrix(1.25,0,0,-1.25,427.34668,580.28812)">
    <path id="path3201" d="m0,0c0.305-0.528,0.697-0.962,1.178-1.299,0.482-0.338,1.036-0.586,1.66-0.746,0.624-0.162,1.273-0.241,1.948-0.241,0.48,0,0.985,0.057,1.513,0.171,0.531,0.11,1.011,0.287,1.443,0.528,0.434,0.24,0.794,0.561,1.082,0.961,0.29,0.401,0.433,0.903,0.433,1.515,0,1.025-0.681,1.796-2.043,2.308-1.364,0.513-3.263,1.027-5.698,1.54-0.995,0.223-1.965,0.488-2.911,0.793-0.946,0.304-1.787,0.703-2.524,1.2-0.738,0.499-1.33,1.123-1.779,1.877-0.45,0.754-0.675,1.676-0.675,2.765,0,1.603,0.313,2.917,0.938,3.945,0.626,1.026,1.453,1.833,2.476,2.426,1.028,0.596,2.181,1.011,3.465,1.253,1.281,0.239,2.596,0.359,3.941,0.359,1.348,0,2.654-0.127,3.92-0.385,1.268-0.256,2.397-0.688,3.391-1.297,0.994-0.611,1.818-1.418,2.477-2.429,0.657-1.01,1.049-2.285,1.179-3.822h-6.493c-0.097,1.312-0.593,2.202-1.491,2.668-0.897,0.465-1.957,0.696-3.174,0.696-0.386,0-0.801-0.023-1.25-0.07-0.449-0.048-0.859-0.154-1.227-0.314-0.369-0.16-0.681-0.392-0.939-0.699-0.256-0.304-0.383-0.713-0.383-1.223,0-0.611,0.224-1.108,0.674-1.493,0.447-0.383,1.033-0.696,1.755-0.937,0.721-0.24,1.546-0.456,2.475-0.649,0.931-0.193,1.877-0.401,2.838-0.625,0.993-0.226,1.963-0.498,2.909-0.816,0.947-0.323,1.788-0.746,2.525-1.275,0.738-0.529,1.331-1.187,1.781-1.973,0.447-0.785,0.673-1.755,0.673-2.909,0-1.636-0.33-3.006-0.986-4.113-0.658-1.104-1.514-1.996-2.574-2.668-1.058-0.673-2.267-1.146-3.631-1.418-1.363-0.273-2.749-0.412-4.159-0.412-1.443,0-2.854,0.147-4.231,0.437-1.38,0.288-2.607,0.767-3.68,1.439-1.075,0.676-1.957,1.563-2.645,2.671-0.69,1.106-1.066,2.491-1.129,4.16h6.491c0-0.737,0.152-1.369,0.457-1.899" fill-rule="nonzero" fill="#FFF"/>
   </g>
   <g id="g3203" transform="matrix(1.25,0,0,-1.25,382.95458,556.11449)">
    <path id="path3205" d="m0,0,0-6.411-5-0.025,0-11.098c0-1.155,0.191-1.926,0.575-2.31,0.385-0.385,1.154-0.578,2.31-0.578,0.383,0,0.751,0.016,1.105,0.049,0.354,0.032,0.69,0.078,1.01,0.144v-5.29c-0.577-0.097-1.219-0.16-1.924-0.193-0.705-0.032-1.394-0.049-2.068-0.049-1.058,0-2.059,0.072-3.005,0.216-0.945,0.148-1.779,0.427-2.501,0.845-0.722,0.415-1.29,1.009-1.707,1.777-0.418,0.771-0.626,1.779-0.626,3.03l-0.008,13.457-3.332,0.002-1.877,6.451h5.217v6.782h6.831v-6.799h5z" fill-rule="nonzero" fill="#FFF"/>
   </g>
   <g id="g3207" transform="matrix(1.25,0,0,-1.25,506.57898,533.48875)">
    <path id="path3209" d="m0,0c0-3.202-2.054-6.099-5.254-6.099h-14.499l-8.235-8.124-8.237,8.124h-14.496c-3.201,0-6.514,2.897-6.514,6.099v35c0,3.203,3.313,5.961,6.514,5.961h45.467c3.2,0,5.254-2.758,5.254-5.961v-35zm-5.254,46.05-45.467,0c-6.007,0-11.602-5.042-11.602-11.05v-35.003c0-6.007,5.595-11.184,11.602-11.184h11.673l11.062-10.109,11.059,10.109h11.673c6.007,0,10.342,5.177,10.342,11.187v35c0,6.008-4.335,11.05-10.342,11.05" fill-rule="nonzero" fill="#FFF"/>
   </g>
   <g id="g3211" transform="matrix(1.25,0,0,-1.25,482.04038,567.47924)">
    <path id="path3213" d="m0,0c0-1.068-0.712-1.779-1.886-1.779h-12.056c-1.176,0-2.058,0.711-2.058,1.779v1.287c0,1.068,0.882,1.934,2.058,1.934h12.056c1.174,0,1.886-0.866,1.886-1.934v-1.287z" fill-rule="nonzero" fill="#FFF"/>
   </g>
   <g id="g3215" transform="matrix(1.25,0,0,-1.25,474.11188,507.74174)">
    <path id="path3217" d="m0,0c-3.988,1.438-5.613,2.459-5.613,3.944,0,1.297,0.974,2.643,3.99,2.643,3.339,0,5.519-1.066,6.679-1.621l1.392,5.241c-1.626,0.741-3.712,1.439-6.772,1.53v4.081h-4.547v-4.405c-4.965-0.93-7.84-4.13-7.84-8.258,0-4.5,3.388-6.818,8.35-8.489,3.478-1.158,4.963-2.274,4.963-4.035,0-1.81-1.807-2.876-4.499-2.876-3.015,0-5.752,0.974-7.701,2.041l-1.391-5.427c1.762-0.975,4.777-1.855,7.886-1.995v-4.408h4.591v4.777c5.334,0.883,8.211,4.408,8.211,8.536,0,4.222-2.178,6.774-7.699,8.721" fill-rule="nonzero" fill="#FFF"/>
   </g>
  </g>
 </g>
</svg>
