<?xml version="1.0" encoding="UTF-8" standalone="no"?>
<!-- Created with Inkscape (http://www.inkscape.org/) -->
<svg id="svg3363" xmlns:rdf="http://www.w3.org/1999/02/22-rdf-syntax-ns#" xmlns="http://www.w3.org/2000/svg" viewBox="0 0 487.92 91.82" version="1.1" xmlns:cc="http://creativecommons.org/ns#" xmlns:dc="http://purl.org/dc/elements/1.1/">
 <defs id="defs3365">
  <clipPath id="clipPath3295" clipPathUnits="userSpaceOnUse">
   <path id="path3297" d="M0,806,1286,806,1286,0,0,0,0,806z"/>
  </clipPath>
 </defs>
 <metadata id="metadata3368">
  <rdf:RDF>
   <cc:Work rdf:about="">
    <dc:format>image/svg+xml</dc:format>
    <dc:type rdf:resource="http://purl.org/dc/dcmitype/StillImage"/>
    <dc:title/>
   </cc:Work>
  </rdf:RDF>
 </metadata>
 <g id="layer1" transform="translate(-131.04212,-486.45217)">
  <g id="g3291" transform="matrix(1.25,0,0,-1.25,-876.94075,1044.5218)">
   <g id="g3293" clip-path="url(#clipPath3295)">
    <g id="g3299" transform="translate(820.9873,412.6035)">
     <path id="path3301" fill-rule="nonzero" fill="#FFF" d="M0,0c0.723,0.376,1.318,0.879,1.79,1.507,0.471,0.629,0.823,1.343,1.06,2.144,0.235,0.801,0.352,1.639,0.352,2.519,0,1.005-0.095,1.955-0.282,2.849-0.188,0.896-0.503,1.688-0.941,2.379-0.441,0.691-1.022,1.241-1.745,1.648-0.721,0.408-1.631,0.614-2.73,0.614-0.943,0-1.751-0.189-2.426-0.566-0.676-0.376-1.241-0.886-1.695-1.531-0.455-0.645-0.786-1.382-0.99-2.214-0.205-0.833-0.306-1.703-0.306-2.614,0-0.879,0.087-1.751,0.26-2.614,0.172-0.864,0.47-1.641,0.893-2.329,0.424-0.693,0.983-1.258,1.673-1.697,0.691-0.44,1.555-0.659,2.591-0.659,0.941,0,1.773,0.187,2.496,0.564m9.16-8.101c-0.267-1.256-0.84-2.426-1.718-3.509-0.88-1.082-2.151-2.001-3.817-2.755-1.664-0.753-3.892-1.13-6.686-1.13-1.194,0-2.41,0.149-3.65,0.447-1.242,0.298-2.372,0.762-3.392,1.39-1.021,0.628-1.869,1.435-2.544,2.426-0.675,0.988-1.059,2.173-1.154,3.555h6.641c0.314-1.257,0.926-2.127,1.838-2.615,0.91-0.485,1.962-0.729,3.155-0.729,1.884,0,3.258,0.563,4.121,1.697,0.863,1.129,1.279,2.559,1.248,4.286v3.202h-0.095c-0.722-1.289-1.75-2.239-3.083-2.851-1.336-0.611-2.741-0.916-4.215-0.916-1.822,0-3.392,0.32-4.711,0.965-1.319,0.64-2.403,1.521-3.249,2.637-0.849,1.113-1.469,2.417-1.862,3.909-0.393,1.49-0.588,3.068-0.588,4.733,0,1.569,0.227,3.084,0.683,4.546,0.454,1.46,1.122,2.747,2.002,3.861,0.878,1.114,1.97,2.002,3.272,2.661,1.303,0.659,2.804,0.989,4.499,0.989,1.601,0,3.006-0.298,4.215-0.895,1.209-0.596,2.222-1.6,3.037-3.014h0.095v3.25h6.359v-22.795c0-0.974-0.134-2.087-0.401-3.345"/>
    </g>
    <g id="g3303" transform="translate(848.6104,417.6187)">
     <path id="path3305" fill-rule="nonzero" fill="#FFF" d="m0,0c-0.424-0.141-0.879-0.257-1.366-0.352-0.487-0.094-0.997-0.174-1.531-0.236-0.535-0.063-1.067-0.141-1.6-0.236-0.504-0.093-0.998-0.219-1.485-0.376-0.487-0.156-0.912-0.369-1.271-0.636-0.36-0.267-0.652-0.605-0.871-1.012-0.221-0.409-0.33-0.927-0.33-1.555,0-0.597,0.109-1.1,0.33-1.507,0.219-0.409,0.518-0.731,0.894-0.965,0.377-0.235,0.816-0.401,1.318-0.497,0.502-0.092,1.021-0.139,1.556-0.139,1.318,0,2.337,0.219,3.06,0.659,0.722,0.439,1.256,0.966,1.602,1.579,0.344,0.611,0.557,1.231,0.636,1.858,0.079,0.628,0.118,1.131,0.118,1.509v2.495c-0.283-0.251-0.636-0.446-1.06-0.589m-13.212,9.445c0.691,1.035,1.57,1.867,2.638,2.495,1.067,0.628,2.267,1.076,3.602,1.343s2.677,0.4,4.028,0.4c1.225,0,2.465-0.086,3.721-0.258,1.255-0.173,2.402-0.512,3.438-1.013,1.037-0.504,1.885-1.201,2.545-2.097,0.658-0.895,0.987-2.079,0.987-3.556v-12.669c0-1.1,0.064-2.15,0.19-3.156,0.125-1.006,0.344-1.759,0.659-2.261h-6.784c-0.125,0.378-0.227,0.762-0.305,1.154-0.078,0.393-0.134,0.791-0.166,1.202-1.068-1.101-2.322-1.869-3.767-2.308-1.445-0.44-2.92-0.66-4.427-0.66-1.163,0-2.245,0.143-3.251,0.424-1.003,0.284-1.882,0.722-2.636,1.321-0.755,0.594-1.343,1.347-1.767,2.258s-0.636,1.994-0.636,3.25c0,1.382,0.244,2.521,0.73,3.415,0.485,0.895,1.115,1.609,1.885,2.144,0.768,0.533,1.647,0.932,2.636,1.2,0.991,0.267,1.987,0.479,2.992,0.635,1.005,0.158,1.994,0.284,2.967,0.378,0.973,0.095,1.837,0.236,2.59,0.426,0.755,0.186,1.351,0.461,1.791,0.822,0.439,0.36,0.644,0.887,0.612,1.578,0,0.722-0.118,1.295-0.353,1.72-0.235,0.423-0.55,0.753-0.941,0.988-0.395,0.236-0.849,0.392-1.368,0.472-0.518,0.078-1.076,0.118-1.671,0.118-1.319,0-2.356-0.283-3.109-0.849-0.755-0.565-1.194-1.507-1.319-2.825h-6.688c0.094,1.568,0.487,2.872,1.177,3.909"/>
    </g>
    <g id="g3307" transform="translate(865.7539,412.3457)">
     <path id="path3309" fill-rule="nonzero" fill="#FFF" d="m0,0c0.298-0.52,0.684-0.943,1.155-1.272,0.471-0.33,1.012-0.575,1.624-0.731,0.613-0.157,1.248-0.235,1.908-0.235,0.47,0,0.965,0.055,1.482,0.165,0.519,0.11,0.991,0.282,1.415,0.518,0.424,0.235,0.775,0.549,1.059,0.942,0.283,0.391,0.424,0.886,0.424,1.483,0,1.004-0.669,1.758-2.002,2.261-1.336,0.503-3.194,1.004-5.581,1.507-0.973,0.219-1.923,0.479-2.849,0.778-0.928,0.296-1.751,0.69-2.473,1.177-0.723,0.485-1.304,1.099-1.743,1.837-0.44,0.737-0.659,1.641-0.659,2.709,0,1.569,0.305,2.856,0.918,3.862,0.613,1.004,1.421,1.795,2.426,2.379,1.004,0.58,2.134,0.987,3.391,1.223,1.255,0.234,2.543,0.353,3.861,0.353,1.321,0,2.599-0.127,3.839-0.376,1.241-0.252,2.347-0.676,3.321-1.272,0.973-0.597,1.782-1.391,2.424-2.379,0.644-0.989,1.029-2.238,1.156-3.744h-6.359c-0.094,1.287-0.582,2.159-1.461,2.615-0.879,0.454-1.915,0.683-3.108,0.683-0.377,0-0.785-0.025-1.224-0.071-0.439-0.047-0.84-0.15-1.201-0.308-0.36-0.158-0.668-0.384-0.918-0.682-0.252-0.299-0.376-0.698-0.376-1.201,0-0.597,0.217-1.082,0.658-1.46,0.44-0.377,1.012-0.683,1.719-0.919,0.706-0.235,1.515-0.446,2.426-0.635,0.91-0.189,1.838-0.394,2.778-0.612,0.973-0.22,1.923-0.489,2.85-0.801,0.927-0.315,1.751-0.731,2.472-1.249,0.722-0.517,1.303-1.162,1.744-1.931,0.438-0.769,0.659-1.718,0.659-2.849,0-1.601-0.321-2.943-0.965-4.028-0.644-1.082-1.484-1.955-2.52-2.614-1.037-0.659-2.222-1.122-3.556-1.387-1.335-0.267-2.693-0.402-4.074-0.402-1.413,0-2.795,0.143-4.145,0.424-1.35,0.284-2.552,0.753-3.602,1.412-1.053,0.662-1.916,1.53-2.591,2.616-0.677,1.082-1.045,2.44-1.108,4.072h6.358c0-0.721,0.15-1.341,0.448-1.858"/>
    </g>
    <g id="g3311" transform="translate(905.3867,415.5928)">
     <path id="path3313" fill-rule="nonzero" fill="#FFF" d="m0,0c0.189-0.925,0.51-1.757,0.966-2.496,0.454-0.737,1.059-1.326,1.814-1.766,0.753-0.439,1.695-0.659,2.824-0.659,1.131,0,2.081,0.22,2.85,0.659,0.769,0.44,1.381,1.029,1.837,1.766,0.455,0.739,0.777,1.571,0.966,2.496,0.188,0.927,0.283,1.877,0.283,2.851,0,0.973-0.095,1.932-0.283,2.873-0.189,0.942-0.511,1.774-0.966,2.497-0.456,0.722-1.068,1.31-1.837,1.765-0.769,0.456-1.719,0.685-2.85,0.685-1.129,0-2.071-0.229-2.824-0.685-0.755-0.455-1.36-1.043-1.814-1.765-0.456-0.723-0.777-1.555-0.966-2.497-0.188-0.941-0.282-1.9-0.282-2.873,0-0.974,0.094-1.924,0.282-2.851m-6.076,8.149c0.597,1.586,1.444,2.936,2.544,4.051,1.098,1.115,2.417,1.979,3.957,2.592,1.537,0.611,3.264,0.917,5.179,0.917,1.917,0,3.651-0.306,5.206-0.917,1.553-0.613,2.88-1.477,3.98-2.592,1.098-1.115,1.945-2.465,2.543-4.051,0.596-1.585,0.895-3.351,0.895-5.298s-0.299-3.705-0.895-5.274c-0.598-1.572-1.445-2.914-2.543-4.028-1.1-1.115-2.427-1.971-3.98-2.569-1.555-0.593-3.289-0.893-5.206-0.893-1.915,0-3.642,0.3-5.179,0.893-1.54,0.598-2.859,1.454-3.957,2.569-1.1,1.114-1.947,2.456-2.544,4.028-0.596,1.569-0.895,3.327-0.895,5.274s0.299,3.713,0.895,5.298"/>
    </g>
    <g id="g3315" transform="translate(932.1631,412.3457)">
     <path id="path3317" fill-rule="nonzero" fill="#FFF" d="m0,0c0.297-0.52,0.683-0.943,1.152-1.272,0.472-0.33,1.014-0.575,1.626-0.731,0.613-0.157,1.248-0.235,1.907-0.235,0.472,0,0.965,0.055,1.483,0.165,0.519,0.11,0.991,0.282,1.415,0.518,0.425,0.235,0.775,0.549,1.06,0.942,0.282,0.391,0.423,0.886,0.423,1.483,0,1.004-0.669,1.758-2.002,2.261-1.335,0.503-3.195,1.004-5.581,1.507-0.973,0.219-1.922,0.479-2.85,0.778-0.926,0.296-1.75,0.69-2.473,1.177-0.722,0.485-1.303,1.099-1.742,1.837-0.44,0.737-0.659,1.641-0.659,2.709,0,1.569,0.305,2.856,0.919,3.862,0.612,1.004,1.419,1.795,2.425,2.379,1.004,0.58,2.134,0.987,3.391,1.223,1.256,0.234,2.543,0.353,3.862,0.353,1.32,0,2.598-0.127,3.838-0.376,1.241-0.252,2.347-0.676,3.322-1.272,0.973-0.597,1.781-1.391,2.425-2.379,0.643-0.989,1.028-2.238,1.154-3.744h-6.359c-0.093,1.287-0.58,2.159-1.461,2.615-0.879,0.454-1.915,0.683-3.108,0.683-0.376,0-0.784-0.025-1.224-0.071-0.44-0.047-0.839-0.15-1.201-0.308-0.361-0.158-0.668-0.384-0.919-0.682-0.25-0.299-0.377-0.698-0.377-1.201,0-0.597,0.22-1.082,0.659-1.46,0.441-0.377,1.013-0.683,1.719-0.919,0.708-0.235,1.516-0.446,2.427-0.635,0.91-0.189,1.838-0.394,2.778-0.612,0.974-0.22,1.923-0.489,2.849-0.801,0.928-0.315,1.752-0.731,2.474-1.249,0.721-0.517,1.302-1.162,1.743-1.931,0.438-0.769,0.66-1.718,0.66-2.849,0-1.601-0.322-2.943-0.967-4.028-0.643-1.082-1.483-1.955-2.519-2.614-1.038-0.659-2.222-1.122-3.556-1.387-1.335-0.267-2.693-0.402-4.074-0.402-1.413,0-2.796,0.143-4.145,0.424-1.351,0.284-2.553,0.753-3.602,1.412-1.053,0.662-1.916,1.53-2.592,2.616-0.676,1.082-1.044,2.44-1.107,4.072h6.358c0-0.721,0.148-1.341,0.449-1.858"/>
    </g>
    <g id="g3319" transform="translate(897.8213,431.2212)">
     <path id="path3321" fill-rule="nonzero" fill="#FFF" d="m0,0,0-6.28-4.897-0.024,0-10.871c0-1.13,0.188-1.887,0.565-2.261,0.377-0.378,1.13-0.566,2.26-0.566,0.377,0,0.738,0.016,1.084,0.047s0.675,0.078,0.988,0.141v-5.179c-0.565-0.097-1.192-0.158-1.884-0.189-0.69-0.032-1.366-0.049-2.025-0.049-1.035,0-2.017,0.071-2.944,0.211-0.925,0.144-1.742,0.418-2.448,0.826-0.707,0.408-1.265,0.989-1.673,1.743-0.408,0.753-0.612,1.743-0.612,2.967l-0.009,13.18-3.262,0.002-1.839,6.317h5.11v6.642h6.689v-6.657h4.897z"/>
    </g>
    <g id="g3323" transform="translate(1047.0146,417.6211)">
     <path id="path3325" fill-rule="nonzero" fill="#FFF" d="m0,0c-0.424-0.142-0.878-0.26-1.366-0.354-0.487-0.096-0.995-0.172-1.53-0.236-0.535-0.063-1.067-0.141-1.601-0.236-0.502-0.093-0.997-0.219-1.484-0.376-0.487-0.156-0.91-0.369-1.271-0.636-0.362-0.267-0.652-0.604-0.873-1.011-0.218-0.41-0.328-0.927-0.328-1.556,0-0.598,0.11-1.101,0.328-1.507,0.221-0.409,0.518-0.731,0.897-0.965,0.376-0.236,0.816-0.4,1.318-0.497,0.502-0.09,1.019-0.142,1.554-0.142,1.319,0,2.339,0.223,3.06,0.662,0.724,0.439,1.257,0.966,1.603,1.579,0.345,0.611,0.558,1.231,0.636,1.86,0.078,0.628,0.118,1.129,0.118,1.507v2.495c-0.284-0.25-0.635-0.446-1.061-0.587m-13.212,9.445c0.691,1.034,1.572,1.867,2.638,2.494,1.068,0.627,2.267,1.076,3.605,1.341,1.334,0.267,2.675,0.401,4.026,0.401,1.223,0,2.464-0.085,3.72-0.259,1.257-0.175,2.403-0.511,3.44-1.011,1.037-0.503,1.883-1.202,2.542-2.098,0.66-0.895,0.991-2.08,0.991-3.556v-12.669c0-1.098,0.062-2.15,0.187-3.156,0.125-1.004,0.344-1.756,0.66-2.261h-6.783c-0.127,0.378-0.228,0.763-0.306,1.154-0.08,0.392-0.133,0.795-0.165,1.202-1.068-1.099-2.323-1.867-3.768-2.309-1.444-0.44-2.92-0.659-4.427-0.659-1.164,0-2.247,0.143-3.251,0.425s-1.882,0.721-2.636,1.319c-0.755,0.594-1.343,1.349-1.767,2.259-0.424,0.913-0.636,1.993-0.636,3.252,0,1.379,0.244,2.519,0.729,3.412,0.487,0.896,1.116,1.611,1.885,2.144,0.768,0.534,1.647,0.935,2.636,1.201,0.992,0.268,1.988,0.479,2.992,0.635,1.004,0.159,1.994,0.283,2.969,0.377,0.972,0.097,1.836,0.236,2.59,0.426,0.752,0.187,1.35,0.461,1.788,0.823,0.441,0.361,0.646,0.887,0.614,1.58,0,0.72-0.118,1.293-0.354,1.717-0.235,0.425-0.549,0.752-0.941,0.991-0.394,0.235-0.848,0.39-1.368,0.469-0.517,0.078-1.075,0.119-1.671,0.119-1.318,0-2.354-0.282-3.108-0.847-0.753-0.567-1.194-1.509-1.318-2.828h-6.689c0.093,1.571,0.486,2.874,1.176,3.912"/>
    </g>
    <g id="g3327" transform="translate(1076.0518,421.4111)">
     <path id="path3329" fill-rule="nonzero" fill="#FFF" d="M0,0c-0.22,0.944-0.565,1.774-1.036,2.498-0.472,0.721-1.062,1.294-1.767,1.717-0.706,0.425-1.562,0.638-2.566,0.638-0.974,0-1.822-0.213-2.543-0.638-0.725-0.423-1.32-0.996-1.79-1.717-0.472-0.724-0.819-1.554-1.036-2.498-0.22-0.942-0.33-1.93-0.33-2.967,0-1.005,0.11-1.977,0.33-2.92,0.217-0.943,0.564-1.774,1.036-2.497,0.47-0.72,1.065-1.294,1.79-1.718,0.721-0.423,1.569-0.637,2.543-0.637,1.004,0,1.86,0.214,2.566,0.637,0.705,0.424,1.295,0.998,1.767,1.718,0.471,0.723,0.816,1.554,1.036,2.497s0.33,1.915,0.33,2.92c0,1.037-0.11,2.025-0.33,2.967m-10.834,18.511,0-12.246,0.096,0c0.815,1.257,1.923,2.174,3.32,2.755,1.397,0.579,2.849,0.871,4.356,0.871,1.225,0,2.432-0.251,3.626-0.753s2.269-1.272,3.229-2.306c0.955-1.037,1.733-2.365,2.33-3.981,0.596-1.619,0.896-3.543,0.896-5.771s-0.3-4.154-0.896-5.768c-0.597-1.62-1.375-2.945-2.33-3.981-0.96-1.035-2.035-1.805-3.229-2.31-1.194-0.5-2.401-0.752-3.626-0.752-1.79,0-3.39,0.284-4.803,0.849-1.414,0.564-2.482,1.521-3.203,2.873h-0.095v-3.11h-6.358v33.63h6.687z"/>
    </g>
    <g id="g3331" transform="translate(1100.6133,424.9443)">
     <path id="path3333" fill-rule="nonzero" fill="#FFF" d="m0,0c-0.8,0.877-2.017,1.319-3.649,1.319-1.069,0-1.955-0.182-2.662-0.542-0.707-0.361-1.27-0.81-1.695-1.343-0.423-0.534-0.723-1.098-0.895-1.697-0.174-0.594-0.275-1.129-0.306-1.598h10.88c-0.315,1.694-0.871,2.982-1.673,3.861m-7.558-12.81c1.004-0.974,2.449-1.462,4.332-1.462,1.351,0,2.513,0.338,3.487,1.014,0.972,0.676,1.568,1.389,1.79,2.142h5.886c-0.942-2.92-2.387-5.009-4.333-6.262-1.948-1.257-4.303-1.887-7.064-1.887-1.917,0-3.644,0.309-5.181,0.919-1.54,0.613-2.842,1.484-3.909,2.614-1.069,1.132-1.892,2.48-2.474,4.051-0.581,1.571-0.872,3.297-0.872,5.181,0,1.822,0.3,3.517,0.896,5.088,0.597,1.569,1.443,2.928,2.544,4.074,1.098,1.145,2.408,2.047,3.932,2.706,1.522,0.662,3.211,0.989,5.064,0.989,2.072,0,3.876-0.4,5.415-1.2,1.539-0.802,2.803-1.876,3.791-3.227,0.991-1.35,1.704-2.889,2.144-4.616,0.439-1.726,0.597-3.532,0.471-5.414h-17.568c0.094-2.169,0.644-3.737,1.649-4.71"/>
    </g>
    <g id="g3335" transform="translate(1117.876,430.6431)">
     <path id="path3337" fill-rule="nonzero" fill="#FFF" d="m0,0,0-4.52,0.094,0c0.312,0.751,0.736,1.45,1.271,2.094,0.534,0.643,1.148,1.194,1.837,1.651,0.691,0.452,1.427,0.806,2.214,1.055,0.785,0.254,1.555,0.448,2.4,0.379,0.399-0.032,0.399-0.032,0.803-0.127l1.734-6.088c-0.852,0-1.633,0.016-2.151,0.03-0.444,0.009-0.87-0.031-1.279-0.031-1.224,0-2.261-0.205-3.109-0.613-0.847-0.408-1.531-0.966-2.049-1.671-0.519-0.708-0.888-1.531-1.106-2.475-0.222-0.941-0.331-1.962-0.331-3.06v-10.975h-6.687v24.351h6.359z"/>
    </g>
    <g id="g3339" transform="translate(1154.1885,415.5947)">
     <path id="path3341" fill-rule="nonzero" fill="#FFF" d="m0,0c0.188-0.925,0.509-1.759,0.965-2.496,0.456-0.736,1.059-1.326,1.814-1.768,0.754-0.438,1.695-0.659,2.825-0.659s2.08,0.221,2.85,0.659c0.769,0.442,1.381,1.032,1.837,1.768,0.456,0.737,0.776,1.571,0.965,2.496s0.283,1.874,0.283,2.849c0,0.972-0.094,1.933-0.283,2.874s-0.509,1.773-0.965,2.496c-0.456,0.722-1.068,1.31-1.837,1.766-0.77,0.455-1.72,0.684-2.85,0.684s-2.071-0.229-2.825-0.684c-0.755-0.456-1.358-1.044-1.814-1.766-0.456-0.723-0.777-1.555-0.965-2.496-0.189-0.941-0.282-1.902-0.282-2.874,0-0.975,0.093-1.924,0.282-2.849m-6.076,8.149c0.598,1.585,1.445,2.934,2.545,4.051,1.095,1.113,2.416,1.977,3.954,2.592,1.539,0.609,3.266,0.915,5.181,0.915s3.651-0.306,5.205-0.915c1.554-0.615,2.88-1.479,3.979-2.592,1.101-1.117,1.948-2.466,2.544-4.051,0.596-1.587,0.896-3.353,0.896-5.3,0-1.946-0.3-3.704-0.896-5.274s-1.443-2.912-2.544-4.028c-1.099-1.112-2.425-1.971-3.979-2.567-1.554-0.593-3.29-0.895-5.205-0.895s-3.642,0.302-5.181,0.895c-1.538,0.596-2.859,1.455-3.954,2.567-1.1,1.116-1.947,2.458-2.545,4.028-0.596,1.57-0.896,3.328-0.896,5.274,0,1.947,0.3,3.713,0.896,5.3"/>
    </g>
    <g id="g3343" transform="translate(1180.9629,412.3462)">
     <path id="path3345" fill-rule="nonzero" fill="#FFF" d="m0,0c0.298-0.518,0.685-0.943,1.154-1.273,0.472-0.329,1.014-0.574,1.625-0.729,0.614-0.159,1.249-0.239,1.909-0.239,0.47,0,0.965,0.058,1.483,0.167,0.518,0.111,0.988,0.283,1.412,0.518,0.424,0.237,0.776,0.551,1.06,0.943,0.284,0.393,0.423,0.885,0.423,1.483,0,1.005-0.668,1.758-2.001,2.26-1.336,0.503-3.194,1.006-5.58,1.509-0.973,0.218-1.924,0.479-2.849,0.777-0.928,0.296-1.752,0.689-2.473,1.176-0.723,0.488-1.306,1.1-1.744,1.838-0.44,0.737-0.658,1.64-0.658,2.708,0,1.569,0.304,2.857,0.917,3.862,0.612,1.005,1.421,1.796,2.427,2.377,1.004,0.583,2.132,0.99,3.39,1.228,1.257,0.234,2.543,0.351,3.862,0.351s2.599-0.125,3.839-0.379c1.241-0.249,2.347-0.672,3.322-1.27,0.971-0.596,1.78-1.388,2.424-2.378,0.643-0.99,1.029-2.237,1.155-3.742h-6.36c-0.094,1.284-0.581,2.157-1.46,2.612-0.878,0.455-1.916,0.683-3.107,0.683-0.377,0-0.786-0.025-1.227-0.07-0.439-0.048-0.839-0.15-1.2-0.308-0.361-0.154-0.667-0.384-0.919-0.683-0.251-0.298-0.375-0.698-0.375-1.198,0-0.598,0.219-1.085,0.658-1.461,0.441-0.376,1.012-0.683,1.719-0.919,0.706-0.237,1.515-0.448,2.425-0.636,0.912-0.189,1.838-0.393,2.78-0.613,0.972-0.221,1.922-0.488,2.851-0.8,0.924-0.315,1.75-0.729,2.471-1.247,0.723-0.518,1.302-1.164,1.744-1.932,0.439-0.77,0.659-1.719,0.659-2.849,0-1.603-0.323-2.945-0.967-4.027-0.643-1.085-1.482-1.955-2.518-2.614-1.037-0.659-2.223-1.123-3.555-1.39-1.338-0.268-2.695-0.402-4.076-0.402-1.413,0-2.793,0.144-4.145,0.426-1.35,0.282-2.551,0.753-3.602,1.41-1.052,0.663-1.917,1.532-2.591,2.616-0.676,1.084-1.045,2.442-1.106,4.075h6.358c0-0.722,0.148-1.341,0.446-1.86"/>
    </g>
    <g id="g3347" transform="translate(1146.1816,431.2871)">
     <path id="path3349" fill-rule="nonzero" fill="#FFF" d="m0,0,0-6.279-4.897-0.025,0-10.871c0-1.131,0.187-1.886,0.565-2.261,0.377-0.378,1.129-0.567,2.259-0.567,0.379,0,0.739,0.018,1.087,0.049,0.344,0.03,0.674,0.079,0.986,0.14v-5.179c-0.563-0.096-1.194-0.157-1.884-0.189-0.689-0.032-1.365-0.049-2.025-0.049-1.034,0-2.018,0.07-2.943,0.213s-1.743,0.416-2.45,0.825c-0.707,0.407-1.263,0.989-1.672,1.742-0.408,0.754-0.612,1.744-0.612,2.967l-0.008,13.18-3.262,0.001-1.839,6.318h5.109v6.642h6.689v-6.657h4.897z"/>
    </g>
    <g id="g3351" transform="translate(1017.0703,402.0737)">
     <path id="path3353" fill-rule="nonzero" fill="#FFF" d="m0,0c0-3.084-1.979-5.876-5.063-5.876h-13.974l-7.937-7.83-7.938,7.83h-13.971c-3.086,0-6.279,2.792-6.279,5.876v33.735c0,3.084,3.193,5.744,6.279,5.744h43.82c3.084,0,5.063-2.66,5.063-5.744v-33.735zm-5.063,44.382-43.82,0c-5.791,0-11.182-4.857-11.182-10.647v-33.735c0-5.79,5.391-10.78,11.182-10.78h11.25l10.66-9.743,10.659,9.743h11.251c5.789,0,9.967,4.99,9.967,10.78v33.735c0,5.79-4.178,10.647-9.967,10.647"/>
    </g>
    <g id="g3355" transform="translate(992.0371,421.9272)">
     <path id="path3357" fill-rule="nonzero" fill="#FFF" d="m0,0c-3.845,1.386-5.41,2.37-5.41,3.801,0,1.251,0.939,2.548,3.846,2.548,3.218,0,5.319-1.028,6.438-1.564l1.34,5.052c-1.565,0.716-3.575,1.386-6.526,1.475v3.933h-4.382v-4.245c-4.785-0.897-7.556-3.979-7.556-7.959,0-4.338,3.265-6.573,8.047-8.183,3.352-1.116,4.785-2.191,4.785-3.887,0-1.745-1.744-2.774-4.337-2.774-2.905,0-5.543,0.94-7.422,1.967l-1.342-5.229c1.7-0.94,4.605-1.788,7.601-1.923v-4.247h4.426v4.603c5.141,0.851,7.912,4.25,7.912,8.227,0,4.068-2.099,6.528-7.42,8.405"/>
    </g>
    <g id="g3359" transform="translate(999,374.5498)">
     <path id="path3361" fill-rule="nonzero" fill="#FFF" d="m0,0c0-1.097-1.069-1.55-2.274-1.55h-12.379c-1.206,0-2.347-0.04-2.347,1.332v3.108c0,1.096,0.743,1.56,2.347,1.56h12.379c1.205,0,2.274-0.464,2.274-1.56v-2.89z"/>
    </g>
   </g>
  </g>
 </g>
</svg>
